<svg width="645" height="418" viewBox="0 0 645 418" fill="none" xmlns="http://www.w3.org/2000/svg">
<path opacity="0.1" d="M560.545 233.37C560.548 171.208 509.892 132.63 446.818 116.006C395.572 102.5 382.145 87.102 329.463 76.529C246.374 59.853 176.879 92.263 136.438 138.988C76.42 208.332 82.347 331.887 157.711 371.416C178.69 382.419 221.496 394.217 267.975 385.461C306.193 378.261 316.926 360.761 344.724 358.9C371.679 357.095 398.212 369.805 425.23 370.345C513.895 372.118 560.543 291.23 560.545 233.37Z" fill="url(#paint0_linear_215_897)"/>
<path d="M513.082 211.56L494.221 230.422V297.224H477.589V167.861H423.719V243.616H409.458V230.422H375.192V290.266H354.719" stroke="white" stroke-miterlimit="10" stroke-linecap="round" stroke-linejoin="round"/>
<path d="M423.719 177.24H453.589V181.414H423.719" stroke="white" stroke-miterlimit="10" stroke-linecap="round" stroke-linejoin="round"/>
<path d="M423.719 188.707H453.589V192.881H423.719" stroke="white" stroke-miterlimit="10" stroke-linecap="round" stroke-linejoin="round"/>
<path d="M423.719 200.173H453.589V204.347H423.719" stroke="white" stroke-miterlimit="10" stroke-linecap="round" stroke-linejoin="round"/>
<path d="M423.719 211.64H453.589V215.813H423.719" stroke="white" stroke-miterlimit="10" stroke-linecap="round" stroke-linejoin="round"/>
<path d="M423.719 223.106H453.589V227.28H423.719" stroke="white" stroke-miterlimit="10" stroke-linecap="round" stroke-linejoin="round"/>
<path d="M379.286 230.422L383.162 225.989H401.61L405.365 230.317" stroke="white" stroke-miterlimit="10" stroke-linecap="round" stroke-linejoin="round"/>
<path d="M389.193 225.989V216.893H395.457V225.989" stroke="white" stroke-miterlimit="10" stroke-linecap="round" stroke-linejoin="round"/>
<path d="M254.844 261.632H237.666V234.822H185.279V161.066H136.233V200.173L117.003 219.403" stroke="white" stroke-miterlimit="10" stroke-linecap="round" stroke-linejoin="round"/>
<path d="M185.279 170.197H145.958V175.284H185.279V170.197Z" stroke="white" stroke-miterlimit="10" stroke-linecap="round" stroke-linejoin="round"/>
<path d="M185.279 189.403H145.958V194.49H185.279V189.403Z" stroke="white" stroke-miterlimit="10" stroke-linecap="round" stroke-linejoin="round"/>
<path d="M185.279 208.609H145.958V213.696H185.279V208.609Z" stroke="white" stroke-miterlimit="10" stroke-linecap="round" stroke-linejoin="round"/>
<path d="M185.279 227.816H145.958V232.903H185.279V227.816Z" stroke="white" stroke-miterlimit="10" stroke-linecap="round" stroke-linejoin="round"/>
<path d="M560.545 410.786C560.545 410.786 564.752 365.262 578.936 364.267C586.883 363.71 585.979 381.162 577.762 394.903C577.762 394.903 595.922 367.804 604.892 374.588C615.327 382.479 587.153 400.699 587.153 400.699C587.153 400.699 612.005 386.054 614.838 393.729C617.871 401.946 595.465 405.768 595.465 405.768C595.465 405.768 612.686 402.925 615.883 410.786H560.545Z" fill="#3B82F6"/>
<path d="M208.034 410.779C208.034 410.779 167.664 312.766 145.023 316.556C122.063 320.399 161.523 385.865 161.523 385.865C161.523 385.865 104.273 314.98 91.283 328.676C79.965 340.609 122.077 376.927 122.077 376.927C122.077 376.927 70.229 353.017 64.555 366.867C58.036 382.781 122.414 398.85 122.414 398.85C122.414 398.85 82.24 391.985 69.457 395.589C56.674 399.193 58.033 410.779 58.033 410.779H208.034Z" fill="#3B82F6"/>
<path d="M225.713 261.632H141.713V399.893H225.713V261.632Z" fill="black"/>
<path d="M215.409 261.632L192.583 293.588L196.887 399.893H123.322L119.017 293.588L141.844 261.632H215.409Z" fill="url(#paint1_linear_215_897)"/>
<path d="M147.844 399.86H136.697V410.779H147.844V399.86Z" fill="black"/>
<path d="M215.409 399.86H204.262V410.779H215.409V399.86Z" fill="black"/>
<path d="M163.924 181.284H160.011V261.632H163.924V181.284Z" fill="black"/>
<path d="M166.027 258.925H157.907V261.632H166.027V258.925Z" fill="black"/>
<path d="M201.473 181.284H197.56V261.632H201.473V181.284Z" fill="black"/>
<path d="M203.576 258.925H195.456V261.632H203.576V258.925Z" fill="black"/>
<path d="M206.829 178.893H154.655V185.979H206.829V178.893Z" fill="black"/>
<path opacity="0.5" d="M119.017 293.588H192.583L196.887 399.893H123.322L119.017 293.588Z" fill="url(#paint2_linear_215_897)"/>
<path d="M139.801 392.744L136.075 300.737H128.171L131.897 392.744H139.801Z" stroke="black" stroke-width="0.5" stroke-miterlimit="10"/>
<path d="M155.778 392.744L152.053 300.737H144.149L147.874 392.744H155.778Z" stroke="black" stroke-width="0.5" stroke-miterlimit="10"/>
<path d="M171.756 392.744L168.03 300.737H160.126L163.852 392.744H171.756Z" stroke="black" stroke-width="0.5" stroke-miterlimit="10"/>
<path d="M187.733 392.744L184.008 300.737H176.104L179.829 392.744H187.733Z" stroke="black" stroke-width="0.5" stroke-miterlimit="10"/>
<path d="M197.56 228.501C197.56 228.501 179.135 230.359 172.861 247.088C169.502 256.044 170.029 269.225 177.85 278.315C183.714 285.13 197.56 291.324 203.024 285.88C207.157 281.762 205.647 275.392 198.883 267.435C192.453 259.873 197.561 254.119 197.561 254.119V228.501H197.56Z" fill="url(#paint3_linear_215_897)"/>
<path d="M201.473 228.338C201.473 228.338 212.089 227.402 222.719 236.066C233.121 244.544 235.567 260.278 229.502 263.718C222.413 267.739 216.552 258.126 210.85 254.066C205.926 250.561 201.473 252.468 201.473 252.468V228.338Z" fill="url(#paint4_linear_215_897)"/>
<path d="M190.592 284.909C190.592 284.909 198.855 288.087 202.273 283.281C205.403 278.879 199.736 271.409 196.887 268.01C194.8 265.52 188.579 256.507 193.306 249.24C198.523 241.218 208.371 243.762 214.371 249.436C218.196 253.053 222.132 259.61 227.023 259.48C231.914 259.349 231.327 253.871 231.132 252.893" stroke="black" stroke-width="0.5" stroke-miterlimit="10" stroke-linecap="round"/>
<path d="M532.434 37.873H521.262V410.275H532.434V37.873Z" fill="black"/>
<path d="M588.463 90.4011L457.477 97.6691L455.833 68.0411L586.819 60.7731L597.04 75.0651L588.463 90.4011Z" fill="black"/>
<path d="M465.825 97.201L457.482 97.666L455.832 68.038L464.175 67.573L465.825 97.201Z" fill="#3B82F6"/>
<path d="M454.114 141.625L599.567 158.768L603.445 125.867L457.992 108.724L445.616 123.944L454.114 141.625Z" fill="black"/>
<path d="M603.445 125.867L599.565 158.763L591.042 157.758L594.912 124.862L603.445 125.867Z" fill="#3B82F6"/>
<path d="M40.2289 25.366C44.5969 24.683 49.0649 25.291 53.0989 27.102C66.7849 33.247 104.384 50.266 105.89 50.584C107.826 50.993 260.223 5.09399 275.304 5.09399C285.986 5.09399 295.18 10.631 299.979 15.322C319.615 16.522 326.585 29.415 324.393 37.027C321.987 45.382 312.557 50.694 283.321 59.421C254.085 68.148 106.211 101.454 86.7659 103.391C67.3209 105.327 49.2399 101.408 47.9309 98.2C46.9609 95.824 47.4279 90.988 47.7349 88.64C47.8789 87.543 48.5409 86.586 49.5209 86.074C51.5949 84.989 69.2349 82.112 67.6039 76.513C64.3319 65.385 27.8589 31.003 27.7859 29.203C27.7399 28.055 34.3499 26.285 40.2289 25.366Z" fill="#3B82F6"/>
<path d="M105.893 50.587C105.893 50.587 96.2329 53.607 93.4929 53.897C90.7529 54.197 46.7329 29.537 42.0429 28.657C37.3429 27.777 28.8629 30.707 28.8629 30.707C28.1729 29.907 27.7929 29.387 27.7829 29.207C27.7429 28.057 34.3529 26.287 40.2329 25.367C44.5929 24.687 49.0629 25.287 53.1029 27.097C66.7829 33.247 104.383 50.267 105.893 50.587Z" fill="black"/>
<path d="M270.532 53.713C271.551 53.463 271.407 51.971 270.358 51.932C258.419 51.498 232.463 49.206 198.614 38.393C181.943 33.068 159.992 16.417 151.783 8.819C143.062 0.747997 130.703 -2.06 119.382 1.549L113.329 3.479C111.754 3.981 111.089 5.84 111.992 7.224C116.785 14.569 130.81 35.092 147.335 50.37C157.276 59.56 167.106 64.987 174.59 68.138C181.748 71.152 192.31 72.762 199.885 71.05L270.532 53.713Z" fill="black"/>
<path d="M299.98 15.324C299.98 15.324 295.266 14.64 276.667 20.585C272.608 21.882 268.367 21.509 265.172 18.691L260.38 14.463C259.665 13.831 260.051 12.914 260.873 12.435C266.59 9.10403 282.687 6.19903 285.905 6.87803H285.909C291.918 8.89203 296.869 12.284 299.98 15.324Z" fill="black"/>
<path d="M151.761 38.421C151.761 38.421 136.885 42.531 134.88 43.33C132.679 44.206 129.589 46.248 130.653 51.784C131.497 56.176 135.344 57.32 137.748 57.593C141.835 58.057 155.253 54.348 161.034 52.548" fill="black"/>
<path d="M126.299 11.538C126.299 11.538 116.036 14.374 114.652 14.925C113.133 15.53 111.002 16.938 111.736 20.758C112.318 23.788 114.972 24.577 116.631 24.766C119.451 25.086 128.708 22.527 132.697 21.285" fill="black"/>
<path d="M226.616 25.982C227.001 30.14 228.177 39.156 231.462 45.778C232.025 46.912 233.328 47.469 234.552 47.145C236.993 46.499 241.084 45.416 243.762 44.707C245.206 44.325 246.062 42.849 245.675 41.406C244.589 37.358 242.583 29.34 241.839 22.785C241.653 21.142 240.058 20.052 238.461 20.481C235.517 21.273 231.18 22.439 228.601 23.132C227.331 23.473 226.495 24.673 226.616 25.982Z" stroke="black" stroke-width="0.5" stroke-miterlimit="10"/>
<path d="M207.622 32.488C207.894 34.069 208.321 36.001 208.975 37.825C209.648 39.701 211.705 40.693 213.619 40.138L213.726 40.107C215.754 39.519 216.918 37.436 216.378 35.416C216.029 34.11 215.65 32.582 215.34 31.059C214.889 28.849 212.66 27.486 210.496 28.123L210.351 28.166C208.457 28.722 207.292 30.573 207.622 32.488Z" stroke="black" stroke-width="0.5" stroke-miterlimit="10"/>
<path d="M194.243 36.271C194.515 37.852 194.942 39.784 195.596 41.608C196.269 43.484 198.326 44.476 200.24 43.92L200.347 43.889C202.375 43.301 203.539 41.218 202.999 39.198C202.65 37.892 202.271 36.364 201.961 34.841C201.51 32.631 199.281 31.268 197.117 31.905L196.972 31.947C195.077 32.505 193.913 34.357 194.243 36.271Z" stroke="black" stroke-width="0.5" stroke-miterlimit="10"/>
<path d="M180.863 40.054C181.135 41.635 181.562 43.567 182.216 45.391C182.889 47.267 184.946 48.259 186.86 47.704L186.967 47.673C188.995 47.085 190.159 45.002 189.619 42.982C189.27 41.676 188.891 40.148 188.581 38.625C188.13 36.415 185.901 35.052 183.737 35.689L183.592 35.732C181.697 36.289 180.533 38.14 180.863 40.054Z" stroke="black" stroke-width="0.5" stroke-miterlimit="10"/>
<path d="M167.483 43.837C167.755 45.418 168.182 47.35 168.836 49.174C169.509 51.05 171.566 52.042 173.48 51.486L173.587 51.455C175.615 50.867 176.779 48.784 176.239 46.764C175.89 45.458 175.511 43.93 175.201 42.407C174.75 40.197 172.521 38.834 170.357 39.471L170.212 39.513C168.318 40.072 167.154 41.923 167.483 43.837Z" stroke="black" stroke-width="0.5" stroke-miterlimit="10"/>
<path d="M154.104 47.6199C154.376 49.2009 154.803 51.1329 155.457 52.9569C156.13 54.8329 158.187 55.825 160.101 55.27L160.208 55.239C162.236 54.651 163.4 52.568 162.86 50.548C162.511 49.242 162.132 47.7139 161.822 46.1909C161.371 43.9809 159.142 42.618 156.978 43.255L156.833 43.298C154.938 43.855 153.774 45.7059 154.104 47.6199Z" stroke="black" stroke-width="0.5" stroke-miterlimit="10"/>
<path d="M140.724 49.904C140.996 51.485 141.423 54.917 142.077 56.741C142.75 58.617 144.807 59.609 146.721 59.053L146.828 59.022C148.856 58.434 150.02 56.351 149.48 54.331C149.131 53.025 148.752 51.497 148.442 49.974C147.991 47.764 145.762 46.401 143.598 47.038L143.453 47.08C141.559 47.638 140.394 47.989 140.724 49.904Z" stroke="black" stroke-width="0.5" stroke-miterlimit="10"/>
<path d="M127.345 55.187C127.617 56.769 128.044 58.7 128.698 60.524C129.371 62.4 131.428 63.392 133.342 62.837L133.449 62.806C135.477 62.218 136.641 60.135 136.101 58.115C135.752 56.809 135.373 55.281 135.063 53.758C134.612 51.548 132.383 50.185 130.219 50.822L130.074 50.865C128.179 51.421 127.015 53.272 127.345 55.187Z" stroke="black" stroke-width="0.5" stroke-miterlimit="10"/>
<path d="M113.965 58.9699C114.237 60.5509 114.664 62.4829 115.318 64.3069C115.991 66.1829 118.048 67.175 119.962 66.619L120.069 66.588C122.097 66 123.261 63.917 122.721 61.897C122.372 60.591 121.993 59.0629 121.683 57.5399C121.232 55.3299 119.003 53.967 116.839 54.604L116.694 54.646C114.8 55.204 113.635 57.0559 113.965 58.9699Z" stroke="black" stroke-width="0.5" stroke-miterlimit="10"/>
<path d="M55.332 93.288C55.332 93.288 74.18 96.614 85.919 95.245C97.658 93.875 294.093 47.6851 304.854 44.0741C315.615 40.4631 320.702 35.556 321.093 31.748" stroke="black" stroke-width="0.5" stroke-miterlimit="10"/>
<path d="M536.191 332.016C532.111 337.736 524.641 343.896 525.131 355.986C526.341 385.706 525.132 405.762 505.611 410.276H494.221V403.926C494.221 403.926 509.191 402.846 512.811 391.986C517.851 376.866 504.591 358.926 514.701 325.986C516.671 319.556 518.711 320.946 518.291 324.036C518.411 323.396 519.501 318.236 523.171 315.486C527.091 312.556 525.461 317.186 525.461 317.186C525.461 317.186 530.021 313.136 534.391 313.336C536.281 313.416 536.821 313.876 536.821 314.356C536.821 314.996 535.901 315.696 535.901 315.696C537.571 316.066 538.941 316.896 539.811 318.226C541.591 320.966 541.271 324.876 536.191 332.016Z" fill="url(#paint5_linear_215_897)"/>
<path d="M408.197 351.566C408.197 351.566 403.893 369.961 402.328 372.993C401.351 374.886 398.315 386.233 396.172 394.493C395.062 398.77 393.202 402.851 390.421 406.284C389.578 407.324 388.841 408.625 388.567 410.166H404.366C404.366 410.166 407.382 406.967 404.741 403.935L423.719 370.152L408.197 351.566Z" fill="black"/>
<path d="M441.187 371.066C441.187 371.066 435.817 382.577 435.328 389.62C434.839 396.663 438.703 399.826 438.703 399.826C438.703 399.826 432.589 400.674 428.871 404.88C426.626 407.42 426.067 410.273 426.067 410.273H460.763L465.165 377.097" fill="black"/>
<path d="M498.207 402.601C498.567 402.084 498.916 401.569 499.241 401.066C504.721 392.586 510.721 372.896 495.541 352.546C481.891 334.236 477.061 340.966 463.131 327.206C449.201 313.456 449.031 296.396 449.031 296.396C449.031 296.396 455.471 284.556 455.121 281.776C454.808 279.285 445.344 269.858 440.964 262.415C440.064 260.886 438.494 259.885 436.722 259.793C433.052 259.602 425.985 258.837 415.951 256.007C400.671 251.697 399.111 249.607 397.151 250.127C395.191 250.657 393.731 253.537 393.491 254.967C393.491 254.967 392.011 261.577 394.101 268.197C396.191 274.807 407.352 284.649 411.752 288.959C410.254 291.165 402.535 296.762 398.741 300.894C395.846 304.046 395.652 306.433 399.79 305.285C393.948 312.759 388.665 330.163 395.061 324.427C393.745 337.514 397.681 349.607 405.591 358.027C411.441 364.257 417.261 368.817 417.261 368.817L412.408 396.154C411.87 399.186 410.798 402.125 409.058 404.666C408.16 405.978 407.278 407.836 407.011 410.276H423.261C423.261 410.276 424.341 408.446 424.501 406.906C424.661 405.326 423.801 403.946 423.801 403.946L434.501 376.286L434.511 376.296C434.641 376.396 435.851 377.376 438.071 378.856C439.521 379.826 441.391 381.006 443.681 382.316C444.381 382.706 445.121 383.116 445.901 383.536C445.751 390.986 449.599 398.374 452.969 400.284C448.306 401.784 441.721 404.386 441.721 410.276L497.676 410.275C497.676 410.275 500.823 406.936 498.207 402.601Z" fill="url(#paint6_linear_215_897)"/>
<path d="M440.121 370.256C439.331 372.386 438.581 376.036 438.071 378.856C435.851 377.376 434.641 376.396 434.511 376.296L434.501 376.286L437.541 369.766C437.541 369.766 439.371 365.456 438.851 363.106C438.331 360.766 437.151 347.716 437.281 341.976C437.281 341.976 438.341 355.296 440.221 361.216C441.491 365.236 441.561 366.406 440.121 370.256Z" fill="url(#paint7_linear_215_897)"/>
<path d="M479.721 369.946C479.181 369.786 467.931 366.386 457.241 368.396C446.281 370.446 445.901 383.536 445.901 383.536C445.121 383.116 444.381 382.706 443.681 382.316C443.891 378.606 445.461 369.556 455.721 366.676C466.451 363.676 479.091 369.646 479.721 369.946Z" fill="url(#paint8_linear_215_897)"/>
<path d="M397.89 258.191C397.89 258.191 394.284 256.435 393.893 253.671C393.502 250.907 398.456 246.806 400.062 249.046C402.654 252.664 403.172 259.952 397.89 258.191Z" fill="black"/>
<path d="M418.441 360.416C418.371 362.546 417.261 368.816 417.261 368.816C417.261 368.816 416.561 368.266 415.401 367.296C415.961 365.456 416.521 363.466 416.741 362.196C417.261 359.266 417.261 351.566 417.261 351.566C417.261 351.566 418.501 358.286 418.441 360.416Z" fill="url(#paint9_linear_215_897)"/>
<path d="M454.697 399.827C454.697 399.827 462.914 396.664 472.501 396.957" stroke="black" stroke-width="0.5" stroke-miterlimit="10" stroke-linecap="round"/>
<path d="M430.691 300.746C424.176 302.115 412.761 300.306 405.551 294.666L408.911 290.266C408.911 290.266 415.763 294.827 428.961 295.396C429.001 295.526 429.031 295.666 429.071 295.806C429.551 297.556 430.091 299.226 430.691 300.746Z" fill="black"/>
<path d="M449.321 299.626C449.321 299.636 449.321 299.636 449.321 299.636C448.251 301.666 446.731 304.616 445.731 306.896C443.571 311.796 441.151 312.736 439.361 310.776C439.361 310.776 438.951 313.856 436.011 312.336C433.081 310.826 432.121 307.016 432.121 307.016C432.121 307.016 431.851 308.666 430.241 307.886C428.631 307.106 419.881 286.436 433.161 272.936C432.791 273.426 425.631 283.226 429.071 295.806C432.591 308.716 439.651 316.946 449.031 296.396C449.031 296.396 449.041 297.596 449.321 299.626Z" fill="url(#paint10_linear_215_897)"/>
<path d="M416.594 305.375C416.797 304.947 416.882 304.45 416.802 303.919C416.658 302.972 415.936 302.167 415.01 301.922C414.068 301.672 413.169 301.975 412.578 302.587C411.863 303.327 410.908 303.788 409.88 303.724L409.05 303.673C408.022 303.61 407.131 303.036 406.512 302.213C406 301.533 405.146 301.123 404.18 301.255C403.231 301.385 402.416 302.095 402.157 303.017C402.012 303.533 402.035 304.038 402.184 304.487C402.42 305.195 402.371 305.989 402.05 306.663C401.846 307.09 401.762 307.588 401.842 308.118C401.986 309.065 402.708 309.87 403.634 310.115C404.576 310.364 405.475 310.062 406.066 309.45C406.781 308.71 407.736 308.249 408.764 308.313L409.594 308.364C410.622 308.427 411.513 309.001 412.132 309.824C412.644 310.504 413.498 310.915 414.464 310.782C415.413 310.652 416.228 309.942 416.487 309.02C416.632 308.503 416.609 307.999 416.46 307.55C416.224 306.843 416.273 306.049 416.594 305.375Z" fill="black"/>
<path d="M411.36 297.224C411.36 297.224 408.963 300.012 409.55 304.512" stroke="black" stroke-miterlimit="10"/>
<path d="M419.709 263.405C419.709 263.405 421.531 265.764 424.509 266.429C427.507 267.098 428.964 265.077 428.964 265.077" stroke="black" stroke-miterlimit="10" stroke-linecap="round" stroke-linejoin="round"/>
<path d="M384.82 87.542C384.82 87.542 388.465 96.87 389.786 100.706C390.607 103.09 388.64 114.769 388.64 114.769L380.331 102.998L384.82 87.542Z" fill="url(#paint11_linear_215_897)"/>
<path d="M380.328 103.001L387.592 113.281L387.748 108.136C387.748 108.136 387.367 105.607 386.889 103.411C386.411 101.214 386.874 98.377 386.586 95.994C386.268 93.352 383.912 92.731 383.912 92.731C383.912 92.731 383.784 92.496 383.394 92.437L380.328 103.001Z" fill="black"/>
<path d="M208.674 80.682C208.674 80.682 201.738 92.015 200.795 93.337C200.317 94.006 198.352 105.705 198.888 107.52C199.44 109.388 210.49 103.891 210.49 103.891L213.64 101.026L208.674 80.682Z" fill="url(#paint12_linear_215_897)"/>
<path d="M202.331 107.356C205.758 106.253 210.493 103.89 210.493 103.89L213.637 101.029L209.82 85.33C208.976 85.76 208.065 86.4819 207.574 88.2299C207.146 89.7549 206.764 100.451 206.764 100.451L205.475 103.746C205.475 103.746 203.093 105.911 202.331 107.356Z" fill="black"/>
<path d="M324.753 46.715L392.936 63.27L355.729 192.881L319.739 182.142L324.753 46.715Z" fill="white" stroke="black" stroke-width="0.5" stroke-miterlimit="10"/>
<path d="M324.753 46.715L252.139 60.471L272.196 182.823L319.739 182.142L324.753 46.715Z" fill="white" stroke="black" stroke-width="0.5" stroke-miterlimit="10"/>
<path d="M252.139 60.4709L203.136 63.077L237.666 192.881L272.196 182.823L252.139 60.4709Z" fill="white" stroke="black" stroke-width="0.5" stroke-miterlimit="10"/>
<path opacity="0.25" d="M271.174 176.003L320.689 175.294L351.066 184.358L384.402 68.23L324.575 53.704L252.96 67.271L211.905 69.454L242.472 184.363L271.174 176.003Z" fill="url(#paint13_linear_215_897)"/>
<path d="M315.543 287.35C315.543 287.35 320.519 303.045 321.465 305.648C322.412 308.251 357.615 382.089 357.615 382.089L375.192 376.326C375.192 376.326 359.922 309.139 348.309 299.27L345.269 285.089C334.992 281.209 324.964 281.083 315.543 287.35Z" fill="url(#paint14_linear_215_897)"/>
<path d="M269.045 391.555L289.013 391.94C289.013 391.94 293.561 339.828 292.853 327.055C292.136 314.273 290.522 306.063 290.522 306.063L294.269 286.345C283.966 280.083 273.446 278.503 264.352 282.002C263.39 288.779 262.265 297.333 261.857 303.049C261.368 309.851 269.045 391.555 269.045 391.555Z" fill="url(#paint15_linear_215_897)"/>
<path d="M333.037 215.721C333.037 215.721 339.215 227.832 339.215 235.598C339.215 243.364 340.517 251.691 340.517 251.691L348.092 292.562C348.092 292.562 332.683 298.875 311.881 298.667L305.41 260.688L304.205 261.048L301.942 299.14C301.942 299.14 273.297 301.993 261.857 294.713C261.857 294.713 264.856 268.892 266.031 259.284C269.521 230.746 274.929 210.175 274.929 210.175L333.037 215.721Z" fill="url(#paint16_linear_215_897)"/>
<path d="M310.62 258.191C310.62 258.191 309.333 259.47 307.903 260.027C306.863 260.432 305.409 260.687 305.409 260.687L307.131 270.791L310.62 258.191Z" fill="black"/>
<path d="M304.204 261.048L307.363 260.316C307.363 260.316 312.171 258.929 314.129 251.925" stroke="black" stroke-width="0.5" stroke-miterlimit="10" stroke-linecap="round"/>
<path d="M355.722 156.673C363.012 140.755 373.767 124.25 373.767 124.25C374.207 122.172 374.725 117.896 375.779 113.122C376.478 109.952 378.771 107.01 378.771 107.01C378.771 107.01 377.88 100.07 379.981 96.4409C382.207 92.5959 386.12 93.9279 385.65 98.0169C385.074 103.031 386.73 105.928 386.73 105.928C386.73 105.928 389.744 110.858 389.532 113.696C389.15 118.79 384.17 127.801 384.17 127.801C384.17 127.801 376.86 177.863 367.152 183.688C359.65 188.189 347.807 178.28 347.807 178.28C347.807 178.28 353.327 161.903 355.722 156.673Z" fill="url(#paint17_linear_215_897)"/>
<path d="M257.627 148.803L249.831 151.548L220.278 115.637L208.642 121.235C208.642 121.235 223.414 154.508 238.181 170.997C243.935 177.422 263.247 172.765 263.247 172.765L257.627 148.803Z" fill="url(#paint18_linear_215_897)"/>
<path d="M303.124 90.7469C299.888 95.1169 297.236 101.522 294.604 110.761C291.942 120.109 295.469 124.63 305.254 126.854C305.254 130.793 304.783 139.218 304.783 139.218L301.763 141.232C301.763 141.232 303.703 143.348 311.58 144.11C319.457 144.872 327.906 138.281 327.906 138.281L323.903 137.503L321.429 125.641C321.429 125.641 331.95 116.574 333.475 103.869C335 91.1629 312.853 77.6049 303.124 90.7469Z" fill="url(#paint19_linear_215_897)"/>
<path d="M317.274 140.804C308.822 141.963 304.784 139.217 304.784 139.217C304.784 139.217 301.386 139.798 297.386 139.633C292.289 139.423 289.858 138.354 285.76 138.568C280.672 138.834 254.491 149.528 254.491 149.528C251.232 161.108 261.975 179.739 261.975 179.739L282.776 175.398C278.61 188.484 275.436 200.572 271.486 221.441C271.486 221.441 277.565 230.154 302.97 232.111C326.067 233.89 340.398 226.231 340.398 226.231C340.398 226.231 331.789 198.108 333.731 192.422C335.673 186.736 338.449 178.661 338.449 178.661L347.38 185.78C361.525 180.094 364.379 164.687 364.379 164.687C364.379 164.687 346.927 142.132 341.819 138.257C337.958 135.328 331.116 136.631 329.039 137.103C326.599 137.658 323.905 137.501 323.905 137.501C323.905 137.501 322.36 140.106 317.274 140.804Z" fill="#E0272A"/>
<path d="M319.541 71.333C324.097 72.641 327.786 77.199 327.217 81.904C328.713 79.848 331.376 79.581 332.707 80.203C334.174 80.887 333.949 82.984 332.294 84.177C334.718 83.528 338.995 82.539 341.819 85.794C343.564 87.806 343.002 91.77 339.55 93.032C343.239 94.639 347.498 100.29 348.445 104.49C348.996 106.937 349.273 115.199 337.307 113.634C339.884 117.716 338.945 124.224 335.695 125.479C333.454 126.344 330.88 125.435 329.646 124.414C329.542 126.174 327.807 127.74 325.779 127.754C324.175 127.766 322.735 127.285 321.751 126.018C320.435 128.036 317.647 129.067 315.24 128.962C309.649 128.718 308.421 124.813 308.323 123.338C303.274 121.559 302.656 117.265 302.357 114.578C302.027 111.622 303.948 107.789 305.7 107.212C303.333 107.744 300.458 105.956 299.932 104.195C299.252 101.917 300.036 99.713 301.173 98.586C298.991 98.348 293.779 96.917 293.247 91.385C292.662 85.311 296.323 82.481 298.548 82.147C297.791 81.365 297.728 79.697 298.009 78.645C299.075 74.641 304.193 74.493 307.802 75.263C309.898 71.268 315.401 70.144 319.541 71.333Z" fill="black"/>
<path d="M293.806 392.295C293.806 392.295 293.109 386.998 289.79 385.883C286.649 384.827 280.006 384.751 276.145 386.251C273.315 387.35 272.706 390.964 272.706 390.964L269.001 391.086L268.443 385.106C268.443 385.106 264.061 384.049 262.877 385.728C262.275 386.582 263.957 390.358 264.489 391.467C262.773 391.556 255.777 391.408 251.788 395.777C248.531 399.345 248.335 403.863 248.735 407.003C247.434 408.535 248.188 410.779 248.188 410.779H297.349C297.349 410.779 297.753 408.358 296.724 407.003C297.657 403.092 298.13 396.918 293.806 392.295Z" fill="#E0272A"/>
<path d="M388.942 391.54C388.942 391.54 389.461 388.879 387.374 384.777C384.438 379.005 377.553 376.409 377.553 376.409C377.553 376.409 376.991 372.267 373.53 372.445C370.069 372.622 363.738 375.078 362.052 376.409C360.366 377.74 361.188 380.917 361.188 380.917L357.615 382.089L354.523 375.6C354.523 375.6 350.87 376.232 349.894 378.362C348.918 380.492 355.219 384.131 355.219 384.131L353.77 390.578C353.77 390.578 346.345 389.811 342.085 393.095C338.682 395.718 337.771 401.73 338.538 407.005C337.707 407.532 337.877 409.613 338.269 410.781H368.443L388.942 391.54Z" fill="#E0272A"/>
<path d="M295.656 407.003H249.746" stroke="black" stroke-width="0.5" stroke-miterlimit="10" stroke-linecap="round" stroke-linejoin="round"/>
<path d="M384.771 410.779C384.771 410.779 385.752 407.032 386.738 402.9C387.832 398.315 388.942 393.211 388.942 391.274C388.942 389.221 387.211 387.236 383.75 386.615C379.856 385.916 374.554 387.525 372.701 391.259C368.752 399.217 364.936 410.779 364.936 410.779H384.771Z" fill="black"/>
<path d="M387.212 385.594C387.212 385.594 385.015 383.17 380.423 383.287C375.193 383.42 372.14 384.87 370.335 388.272C368.63 391.487 362.185 406.983 362.185 406.983H339.451" stroke="black" stroke-width="0.5" stroke-miterlimit="10" stroke-linecap="round" stroke-linejoin="round"/>
<path d="M220.278 115.637C220.278 115.637 220.182 111.626 219.148 106.85C218.703 104.796 217.269 102.648 215.741 98.732C215.072 92.874 215.017 90.787 213.767 88.608C212.653 86.666 209.756 86.252 208.705 88.29C207.969 89.718 208.385 101.439 208.385 101.439L198.887 107.519C199.528 110.193 203.283 114.794 208.641 121.235L220.278 115.637Z" fill="url(#paint20_linear_215_897)"/>
<path d="M317.601 162.626C317.601 162.626 315.533 147.139 303.321 138.606C303.321 138.606 296.522 138.959 293.746 139.314C293.746 139.314 298.736 147.058 299.882 164.154L317.601 162.626Z" fill="black"/>
<path d="M327.293 167.593C327.293 167.593 339.21 157.083 344.58 157.083C344.58 157.083 353.704 161.309 354.704 163.199C362.822 178.545 356.885 224.739 348.648 232.379C340.41 240.02 334.075 241.609 334.075 241.609L327.293 167.593Z" fill="black"/>
<path d="M344.579 172.177C344.579 172.177 344.866 167.211 344.006 163.486" stroke="white" stroke-width="0.5" stroke-miterlimit="10" stroke-linecap="round" stroke-linejoin="round"/>
<path d="M353.175 173.418C353.175 173.418 320.824 156.29 304.973 154.508C304.973 154.508 294.583 154.554 288.446 165.714C288.446 165.714 277.68 225.565 278.053 230.404C278.154 231.718 286.894 246.767 291.287 248.009C310.157 252.889 343.956 245.685 348.647 245.685C355.085 245.685 361.558 182.078 353.175 173.418Z" fill="url(#paint21_linear_215_897)"/>
<path opacity="0.6" d="M294.269 231.08C294.454 233.189 312.776 243.138 350.708 243.615C356.302 232.612 360.647 181.142 353.178 173.42C353.178 173.42 321.478 156.628 305.457 154.578C305.896 159.118 306.287 167.66 304.969 179.532C302.938 197.867 294.005 228.191 294.269 231.08Z" fill="url(#paint22_linear_215_897)"/>
<path d="M361.797 203.861C361.728 202.803 361.049 201.602 360.051 201.242C354.264 199.159 332.08 192.007 324.236 191.946C321.18 191.922 311.557 196.021 309.126 197.804C306.695 199.587 301.505 223.081 302.461 237.121C302.486 237.484 307.223 244.371 315.543 245.621C330.485 247.866 351.712 247.884 353.303 247.467C356.337 246.672 362.518 214.878 361.797 203.861Z" fill="black"/>
<path d="M278.802 188.785C278.802 188.785 278.872 201.116 286.066 214.232L283.519 221.745C283.519 221.745 277.184 210.113 275.178 197.805C275.751 193.666 278.802 188.785 278.802 188.785Z" fill="black"/>
<path d="M285.334 210.427L282.341 223.352L283.838 225.454L288.294 214.47L285.334 210.427Z" fill="black"/>
<path d="M322.279 195.671C322.279 195.671 313.715 214.009 314.145 243.616" stroke="white" stroke-width="0.5" stroke-miterlimit="10" stroke-linecap="round" stroke-linejoin="round"/>
<path d="M360.816 205.795C360.816 205.795 354.576 219.07 350.692 220.749C349.646 221.201 329.338 216.578 328.407 216.014C326.306 214.741 324.014 195.958 324.014 195.958C324.014 195.958 323.807 194 322.231 194.096C320.655 194.192 311.343 197.896 310.054 198.885" stroke="white" stroke-width="0.5" stroke-miterlimit="10" stroke-linecap="round" stroke-linejoin="round"/>
<path d="M342.94 215.489C342.94 215.489 342.415 223.13 345.2 228.955L335.936 230.421C335.936 230.421 333.852 223.664 337.385 214.209L342.94 215.489Z" fill="white"/>
<path d="M296.685 157.083C296.685 157.083 297.909 173.673 292.879 188.785" stroke="black" stroke-miterlimit="10" stroke-linecap="round"/>
<path d="M294.622 186.309L294.694 186.361C294.991 186.575 295.198 186.892 295.275 187.249L297.337 196.786C297.51 197.587 297.004 198.378 296.202 198.548C295.184 198.764 293.771 198.971 292.455 198.847C291.641 198.77 291.061 198.016 291.154 197.203L292.284 187.341C292.335 186.895 292.585 186.497 292.965 186.257C293.475 185.935 294.131 185.955 294.622 186.309Z" fill="black"/>
<path d="M403.016 153.007L420.691 148.271L407.752 135.332L403.016 153.007Z" fill="url(#paint23_linear_215_897)"/>
<path d="M494.032 330.526L504.646 332.887L501.384 322.514L494.032 330.526Z" fill="black"/>
<path d="M85.9028 258.547L108.238 251.104L90.6238 235.482L85.9028 258.547Z" fill="url(#paint24_linear_215_897)"/>
<path d="M450.113 25.376C442.913 25.376 437.073 31.216 437.073 38.426C437.073 45.626 442.913 51.466 450.113 51.466C457.323 51.466 463.163 45.626 463.163 38.426C463.163 31.216 457.323 25.376 450.113 25.376ZM450.113 46.466C445.673 46.466 442.073 42.866 442.073 38.426C442.073 33.976 445.673 30.376 450.113 30.376C454.563 30.376 458.163 33.976 458.163 38.426C458.163 42.866 454.563 46.466 450.113 46.466Z" fill="url(#paint25_linear_215_897)"/>
<path d="M144.703 110.093C144.703 113.408 142.015 116.096 138.7 116.096C135.385 116.096 132.697 113.408 132.697 110.093C132.697 106.777 135.385 104.09 138.7 104.09C142.015 104.09 144.703 106.778 144.703 110.093Z" fill="url(#paint26_linear_215_897)"/>
<path d="M250.294 214.162C250.294 216.661 248.268 218.688 245.768 218.688C243.269 218.688 241.242 216.662 241.242 214.162C241.242 211.662 243.268 209.636 245.768 209.636C248.267 209.636 250.294 211.662 250.294 214.162Z" fill="url(#paint27_linear_215_897)"/>
<path d="M569.023 326.467C569.023 331.783 564.713 336.093 559.397 336.093C554.081 336.093 549.771 331.783 549.771 326.467C549.771 321.151 554.081 316.841 559.397 316.841C564.713 316.84 569.023 321.15 569.023 326.467Z" fill="url(#paint28_linear_215_897)"/>
<path d="M233.578 351.424C226.838 351.424 221.388 356.884 221.388 363.614C221.388 370.354 226.838 375.804 233.578 375.804C240.308 375.804 245.768 370.354 245.768 363.614C245.768 356.884 240.308 351.424 233.578 351.424ZM233.578 374.044C227.818 374.044 223.148 369.374 223.148 363.614C223.148 357.854 227.818 353.184 233.578 353.184C239.338 353.184 244.008 357.854 244.008 363.614C244.008 369.374 239.338 374.044 233.578 374.044Z" fill="url(#paint29_linear_215_897)"/>
<path d="M191.08 14.0389C191.08 15.1669 190.166 16.0819 189.038 16.0819C187.91 16.0819 186.995 15.1669 186.995 14.0389C186.995 12.9109 187.91 11.9969 189.038 11.9969C190.166 11.9959 191.08 12.9109 191.08 14.0389Z" fill="black"/>
<path d="M618.8 219.734C618.8 222.299 616.72 224.379 614.155 224.379C611.59 224.379 609.51 222.299 609.51 219.734C609.51 217.169 611.59 215.089 614.155 215.089C616.72 215.089 618.8 217.169 618.8 219.734Z" fill="url(#paint30_linear_215_897)"/>
<path d="M576.97 106.177C576.97 108.536 575.057 110.449 572.698 110.449C570.339 110.449 568.426 108.536 568.426 106.177C568.426 103.818 570.338 101.905 572.698 101.905C575.058 101.905 576.97 103.817 576.97 106.177Z" fill="black"/>
<path d="M419.276 81.078C422.709 81.078 425.492 78.295 425.492 74.862C425.492 71.429 422.709 68.646 419.276 68.646C415.843 68.646 413.06 71.429 413.06 74.862C413.06 78.295 415.843 81.078 419.276 81.078Z" fill="black"/>
<path d="M473.676 248.402C473.676 249.811 472.533 250.954 471.124 250.954C469.715 250.954 468.572 249.812 468.572 248.402C468.572 246.993 469.714 245.85 471.124 245.85C472.533 245.85 473.676 246.993 473.676 248.402Z" fill="url(#paint31_linear_215_897)"/>
<path opacity="0.1" d="M576.925 188.785C576.925 193.479 573.12 197.283 568.427 197.283C563.734 197.283 559.929 193.478 559.929 188.785C559.929 184.092 563.734 180.287 568.427 180.287C573.12 180.287 576.925 184.091 576.925 188.785Z" fill="url(#paint32_linear_215_897)"/>
<path opacity="0.1" d="M559.397 167.861C559.397 169.305 558.226 170.476 556.782 170.476C555.338 170.476 554.167 169.305 554.167 167.861C554.167 166.417 555.338 165.246 556.782 165.246C558.226 165.247 559.397 166.417 559.397 167.861Z" fill="url(#paint33_linear_215_897)"/>
<path d="M355.761 49.497C355.761 51.503 354.135 53.129 352.129 53.129C350.123 53.129 348.497 51.503 348.497 49.497C348.497 47.491 350.123 45.865 352.129 45.865C354.135 45.865 355.761 47.491 355.761 49.497Z" fill="white"/>
<path d="M97.0708 223.516C97.0708 225.426 95.5228 226.974 93.6128 226.974C91.7028 226.974 90.1548 225.426 90.1548 223.516C90.1548 221.606 91.7028 220.058 93.6128 220.058C95.5228 220.058 97.0708 221.607 97.0708 223.516Z" fill="white"/>
<path d="M403.209 110.448C403.209 111.727 402.172 112.764 400.893 112.764C399.614 112.764 398.577 111.727 398.577 110.448C398.577 109.169 399.614 108.132 400.893 108.132C402.172 108.132 403.209 109.169 403.209 110.448Z" fill="white"/>
<path d="M35.3739 230.368C35.3739 232.828 33.3789 234.823 30.9189 234.823C28.4589 234.823 26.4639 232.828 26.4639 230.368C26.4639 227.907 28.4589 225.913 30.9189 225.913C33.3789 225.912 35.3739 227.907 35.3739 230.368Z" fill="black"/>
<path d="M1 410.779H644.264" stroke="black" stroke-miterlimit="10" stroke-linecap="round"/>
<path d="M331.368 417.183H540.794" stroke="black" stroke-miterlimit="10" stroke-linecap="round"/>
<path d="M244.008 417.183H309.156" stroke="black" stroke-miterlimit="10" stroke-linecap="round"/>
<path d="M122.853 417.183H225.713" stroke="black" stroke-miterlimit="10" stroke-linecap="round"/>
<path d="M482.981 86.5519L482.274 73.8076L484.714 73.6723L492.742 82.431L491.559 82.4966L491.05 73.3208L493.963 73.1591L494.67 85.9034L492.248 86.0377L484.202 77.2801L485.385 77.2144L485.894 86.3903L482.981 86.5519ZM502.354 85.6231C501.237 85.6851 500.242 85.5212 499.368 85.1314C498.506 84.7409 497.824 84.1822 497.321 83.4552C496.817 82.7162 496.539 81.8612 496.485 80.8902C496.43 79.907 496.607 79.0268 497.014 78.2493C497.433 77.4591 498.025 76.8297 498.79 76.3611C499.555 75.8804 500.435 75.6124 501.43 75.5572C502.389 75.504 503.262 75.6625 504.05 76.0328C504.849 76.3902 505.494 76.9388 505.985 77.6785C506.476 78.4061 506.751 79.2979 506.81 80.3538C506.816 80.4631 506.817 80.5909 506.813 80.7372C506.808 80.8714 506.803 80.9995 506.797 81.1215L498.841 81.5629L498.749 79.9062L505.213 79.5476L504.147 80.0998C504.119 79.59 503.991 79.1527 503.764 78.7879C503.537 78.4231 503.236 78.1476 502.86 77.9615C502.484 77.7632 502.053 77.6776 501.567 77.7045C501.082 77.7314 500.657 77.8646 500.293 78.1039C499.94 78.3305 499.672 78.6436 499.487 79.0435C499.301 79.4312 499.223 79.886 499.252 80.4079L499.276 80.8449C499.306 81.3789 499.448 81.8459 499.701 82.2457C499.966 82.6328 500.317 82.9238 500.754 83.1187C501.202 83.3008 501.718 83.3757 502.3 83.3433C502.822 83.3144 503.273 83.2102 503.653 83.0309C504.044 82.8509 504.395 82.594 504.706 82.2603L506.308 83.815C505.887 84.3496 505.344 84.7754 504.68 85.0923C504.015 85.397 503.24 85.574 502.354 85.6231ZM511.032 84.9956L506.956 75.3967L509.633 75.2482L513.031 83.515L511.757 83.5857L514.348 74.9866L516.751 74.8532L520.186 83.118L518.912 83.1887L521.467 74.5916L523.979 74.4522L520.972 84.444L518.223 84.5966L515.219 77.5132L516.056 77.4667L513.763 84.844L511.032 84.9956ZM534.367 83.7008L534.078 78.4939L534.851 80.2407L528.726 71.2304L531.857 71.0566L536.551 77.9732L534.749 78.0732L538.666 70.6788L541.561 70.5182L536.471 80.1508L537.027 78.3303L537.316 83.5372L534.367 83.7008ZM546.886 83.1523C545.843 83.2102 544.902 83.0433 544.064 82.6515C543.239 82.259 542.569 81.6996 542.054 80.9733C541.55 80.2343 541.271 79.3792 541.218 78.4082C541.163 77.4251 541.345 76.5445 541.765 75.7664C542.196 74.9755 542.8 74.3454 543.578 73.8761C544.367 73.3941 545.283 73.1241 546.327 73.0662C547.358 73.0089 548.293 73.1762 549.13 73.568C549.967 73.9477 550.637 74.501 551.14 75.228C551.643 75.9549 551.922 76.816 551.977 77.8113C552.031 78.7822 551.849 79.6629 551.43 80.4531C551.01 81.2312 550.406 81.8613 549.617 82.3434C548.828 82.8254 547.918 83.0951 546.886 83.1523ZM546.757 80.822C547.23 80.7957 547.649 80.6629 548.013 80.4235C548.377 80.1842 548.658 79.8582 548.854 79.4455C549.049 79.0207 549.132 78.5292 549.101 77.9709C549.069 77.4004 548.933 76.921 548.692 76.5326C548.452 76.1441 548.137 75.8511 547.749 75.6535C547.36 75.456 546.929 75.3703 546.456 75.3965C545.983 75.4228 545.564 75.5556 545.2 75.795C544.836 76.0343 544.549 76.3607 544.341 76.774C544.145 77.1866 544.062 77.6782 544.094 78.2486C544.125 78.807 544.261 79.2864 544.503 79.6869C544.755 80.0747 545.076 80.3674 545.464 80.565C545.853 80.7625 546.284 80.8482 546.757 80.822ZM554.147 82.6034L553.604 72.8085L556.317 72.658L556.47 75.4253L556.043 74.6455C556.296 73.9375 556.735 73.3896 557.358 73.002C557.982 72.6021 558.754 72.3767 559.677 72.3255L559.822 74.9471C559.7 74.9417 559.591 74.9417 559.494 74.9471C559.396 74.9404 559.292 74.94 559.183 74.9461C558.406 74.9892 557.788 75.2487 557.327 75.7248C556.878 76.188 556.679 76.8869 556.731 77.8214L556.988 82.4458L554.147 82.6034ZM564.172 80.0383L564.053 76.5751L568.382 71.9885L571.769 71.8007L567.629 76.5046L566.221 77.788L564.172 80.0383ZM561.935 82.1713L561.185 68.6624L564.025 68.5048L564.775 82.0137L561.935 82.1713ZM569.235 81.7662L565.694 77.8355L567.356 75.5336L572.676 81.5753L569.235 81.7662Z" fill="white"/>
<path d="M496.362 135.646L497.715 124.164L493.187 123.63L493.501 120.962L505.833 122.415L505.518 125.083L500.99 124.55L499.637 136.032L496.362 135.646ZM509.756 137.388C508.597 137.252 507.594 136.888 506.749 136.296C505.916 135.706 505.287 134.962 504.859 134.065C504.447 133.156 504.305 132.162 504.432 131.084C504.56 129.992 504.93 129.059 505.541 128.283C506.166 127.496 506.951 126.919 507.897 126.552C508.857 126.173 509.916 126.052 511.075 126.189C512.221 126.324 513.216 126.687 514.062 127.279C514.91 127.857 515.54 128.594 515.954 129.49C516.368 130.386 516.509 131.386 516.379 132.491C516.252 133.569 515.882 134.503 515.27 135.291C514.66 136.067 513.874 136.644 512.914 137.022C511.954 137.401 510.901 137.523 509.756 137.388ZM510.061 134.801C510.586 134.863 511.072 134.797 511.519 134.603C511.965 134.41 512.336 134.105 512.631 133.689C512.927 133.26 513.112 132.735 513.185 132.115C513.26 131.481 513.202 130.928 513.012 130.455C512.821 129.981 512.532 129.599 512.143 129.307C511.753 129.015 511.296 128.838 510.77 128.776C510.245 128.715 509.759 128.78 509.312 128.974C508.866 129.167 508.489 129.471 508.18 129.886C507.885 130.302 507.7 130.826 507.626 131.46C507.553 132.08 507.611 132.633 507.799 133.12C508.003 133.595 508.299 133.978 508.688 134.27C509.078 134.562 509.535 134.739 510.061 134.801ZM520.716 136.261L521.249 132.43L526.89 128.216L530.65 128.659L525.195 133.038L523.4 134.179L520.716 136.261ZM517.846 138.177L519.614 123.178L522.767 123.549L521 138.549L517.846 138.177ZM525.953 139.132L522.812 134.13L525.081 131.918L529.773 139.583L525.953 139.132ZM531.434 143.918C530.868 143.852 530.319 143.698 529.787 143.458C529.255 143.218 528.832 142.922 528.518 142.571L529.935 140.462C530.152 140.707 530.408 140.908 530.704 141.065C531.013 141.225 531.323 141.323 531.633 141.359C532.078 141.412 532.441 141.345 532.722 141.16C533.015 140.989 533.299 140.674 533.571 140.215L534.295 138.947L534.578 138.632L539.584 129.712L542.617 130.069L536.344 141.033C535.891 141.868 535.405 142.508 534.888 142.952C534.385 143.398 533.845 143.69 533.269 143.827C532.706 143.966 532.094 143.996 531.434 143.918ZM533.725 140.479L530.204 128.606L533.459 128.99L536.147 138.53L533.725 140.479ZM547.482 141.833C546.323 141.696 545.321 141.332 544.475 140.741C543.643 140.151 543.013 139.407 542.586 138.51C542.174 137.6 542.031 136.606 542.158 135.528C542.287 134.437 542.656 133.503 543.267 132.728C543.892 131.941 544.678 131.364 545.623 130.997C546.583 130.618 547.642 130.497 548.802 130.634C549.947 130.768 550.943 131.132 551.789 131.723C552.636 132.301 553.266 133.038 553.68 133.934C554.094 134.83 554.236 135.831 554.105 136.936C553.978 138.014 553.609 138.947 552.997 139.736C552.386 140.511 551.601 141.088 550.641 141.467C549.68 141.846 548.628 141.968 547.482 141.833ZM547.787 139.245C548.313 139.307 548.799 139.242 549.245 139.048C549.691 138.855 550.062 138.55 550.357 138.134C550.653 137.704 550.838 137.179 550.911 136.559C550.986 135.926 550.928 135.373 550.738 134.899C550.548 134.426 550.258 134.043 549.869 133.752C549.48 133.46 549.022 133.283 548.497 133.221C547.971 133.159 547.485 133.225 547.039 133.418C546.592 133.612 546.215 133.916 545.906 134.33C545.611 134.746 545.427 135.271 545.352 135.905C545.279 136.524 545.337 137.078 545.525 137.565C545.729 138.04 546.026 138.423 546.415 138.715C546.804 139.007 547.261 139.183 547.787 139.245Z" fill="white"/>
<defs>
<linearGradient id="paint0_linear_215_897" x1="134.032" y1="118.122" x2="481.369" y2="361.357" gradientUnits="userSpaceOnUse">
<stop stop-color="#8AB9FD"/>
<stop offset="1" stop-color="#0056E9"/>
</linearGradient>
<linearGradient id="paint1_linear_215_897" x1="167.213" y1="271.153" x2="167.213" y2="374.983" gradientUnits="userSpaceOnUse">
<stop stop-color="#E4816F"/>
<stop offset="1" stop-color="#E25E52"/>
</linearGradient>
<linearGradient id="paint2_linear_215_897" x1="157.952" y1="300.909" x2="157.952" y2="380.741" gradientUnits="userSpaceOnUse">
<stop stop-color="#E4816F"/>
<stop offset="1" stop-color="#E25E52"/>
</linearGradient>
<linearGradient id="paint3_linear_215_897" x1="175.286" y1="238.124" x2="206.802" y2="276.933" gradientUnits="userSpaceOnUse">
<stop stop-color="#8AB9FD"/>
<stop offset="1" stop-color="#0056E9"/>
</linearGradient>
<linearGradient id="paint4_linear_215_897" x1="194.612" y1="222.304" x2="226.178" y2="261.174" gradientUnits="userSpaceOnUse">
<stop stop-color="#8AB9FD"/>
<stop offset="1" stop-color="#0056E9"/>
</linearGradient>
<linearGradient id="paint5_linear_215_897" x1="507.921" y1="401.728" x2="529.079" y2="316.832" gradientUnits="userSpaceOnUse">
<stop stop-color="#E6832C"/>
<stop offset="1" stop-color="#E9A347"/>
</linearGradient>
<linearGradient id="paint6_linear_215_897" x1="392.143" y1="330.162" x2="505.161" y2="330.162" gradientUnits="userSpaceOnUse">
<stop stop-color="#E6832C"/>
<stop offset="1" stop-color="#E9A347"/>
</linearGradient>
<linearGradient id="paint7_linear_215_897" x1="434.501" y1="360.416" x2="441.187" y2="360.416" gradientUnits="userSpaceOnUse">
<stop stop-color="#E6832C"/>
<stop offset="1" stop-color="#E9A347"/>
</linearGradient>
<linearGradient id="paint8_linear_215_897" x1="443.68" y1="374.686" x2="479.72" y2="374.686" gradientUnits="userSpaceOnUse">
<stop stop-color="#E6832C"/>
<stop offset="1" stop-color="#E9A347"/>
</linearGradient>
<linearGradient id="paint9_linear_215_897" x1="415.401" y1="360.191" x2="418.443" y2="360.191" gradientUnits="userSpaceOnUse">
<stop stop-color="#E6832C"/>
<stop offset="1" stop-color="#E9A347"/>
</linearGradient>
<linearGradient id="paint10_linear_215_897" x1="425.925" y1="292.847" x2="449.321" y2="292.847" gradientUnits="userSpaceOnUse">
<stop stop-color="#E6832C"/>
<stop offset="1" stop-color="#E9A347"/>
</linearGradient>
<linearGradient id="paint11_linear_215_897" x1="362.463" y1="177.254" x2="388.696" y2="94.9914" gradientUnits="userSpaceOnUse">
<stop stop-color="#914713"/>
<stop offset="1" stop-color="#AF6145"/>
</linearGradient>
<linearGradient id="paint12_linear_215_897" x1="252.463" y1="166.559" x2="199.234" y2="87.353" gradientUnits="userSpaceOnUse">
<stop stop-color="#914713"/>
<stop offset="1" stop-color="#AF6145"/>
</linearGradient>
<linearGradient id="paint13_linear_215_897" x1="299.795" y1="50.2061" x2="289.098" y2="171.69" gradientUnits="userSpaceOnUse">
<stop stop-color="#8AB9FD"/>
<stop offset="1" stop-color="#0056E9"/>
</linearGradient>
<linearGradient id="paint14_linear_215_897" x1="288.727" y1="298.901" x2="383.791" y2="351.481" gradientUnits="userSpaceOnUse">
<stop stop-color="#914713"/>
<stop offset="1" stop-color="#AF6145"/>
</linearGradient>
<linearGradient id="paint15_linear_215_897" x1="232.017" y1="311.468" x2="306.652" y2="352.749" gradientUnits="userSpaceOnUse">
<stop stop-color="#914713"/>
<stop offset="1" stop-color="#AF6145"/>
</linearGradient>
<linearGradient id="paint16_linear_215_897" x1="313.474" y1="223.371" x2="301.632" y2="320.405" gradientUnits="userSpaceOnUse">
<stop stop-color="#E6832C"/>
<stop offset="1" stop-color="#E9A347"/>
</linearGradient>
<linearGradient id="paint17_linear_215_897" x1="360.512" y1="176.632" x2="386.744" y2="94.3692" gradientUnits="userSpaceOnUse">
<stop stop-color="#914713"/>
<stop offset="1" stop-color="#AF6145"/>
</linearGradient>
<linearGradient id="paint18_linear_215_897" x1="251.781" y1="166.421" x2="196.188" y2="83.6961" gradientUnits="userSpaceOnUse">
<stop stop-color="#914713"/>
<stop offset="1" stop-color="#AF6145"/>
</linearGradient>
<linearGradient id="paint19_linear_215_897" x1="319.87" y1="143.878" x2="311.114" y2="95.3629" gradientUnits="userSpaceOnUse">
<stop stop-color="#914713"/>
<stop offset="1" stop-color="#AF6145"/>
</linearGradient>
<linearGradient id="paint20_linear_215_897" x1="249.88" y1="163.318" x2="199.103" y2="87.7598" gradientUnits="userSpaceOnUse">
<stop stop-color="#914713"/>
<stop offset="1" stop-color="#AF6145"/>
</linearGradient>
<linearGradient id="paint21_linear_215_897" x1="327.866" y1="149.141" x2="314.126" y2="243.602" gradientUnits="userSpaceOnUse">
<stop stop-color="#E4816F"/>
<stop offset="1" stop-color="#E25E52"/>
</linearGradient>
<linearGradient id="paint22_linear_215_897" x1="335.819" y1="151.357" x2="323.737" y2="234.418" gradientUnits="userSpaceOnUse">
<stop stop-color="#E4816F"/>
<stop offset="1" stop-color="#E25E52"/>
</linearGradient>
<linearGradient id="paint23_linear_215_897" x1="403.928" y1="140.072" x2="412.928" y2="152.072" gradientUnits="userSpaceOnUse">
<stop stop-color="#8AB9FD"/>
<stop offset="1" stop-color="#0056E9"/>
</linearGradient>
<linearGradient id="paint24_linear_215_897" x1="83.3704" y1="241.125" x2="100.477" y2="258.232" gradientUnits="userSpaceOnUse">
<stop stop-color="#E4816F"/>
<stop offset="1" stop-color="#E25E52"/>
</linearGradient>
<linearGradient id="paint25_linear_215_897" x1="441.013" y1="28.5497" x2="459.204" y2="48.2732" gradientUnits="userSpaceOnUse">
<stop stop-color="#E4816F"/>
<stop offset="1" stop-color="#E25E52"/>
</linearGradient>
<linearGradient id="paint26_linear_215_897" x1="134.51" y1="105.55" x2="142.881" y2="114.627" gradientUnits="userSpaceOnUse">
<stop stop-color="#E4816F"/>
<stop offset="1" stop-color="#E25E52"/>
</linearGradient>
<linearGradient id="paint27_linear_215_897" x1="241.433" y1="209.828" x2="251.313" y2="219.708" gradientUnits="userSpaceOnUse">
<stop stop-color="#8AB9FD"/>
<stop offset="1" stop-color="#0056E9"/>
</linearGradient>
<linearGradient id="paint28_linear_215_897" x1="571.631" y1="338.7" x2="555.813" y2="322.882" gradientUnits="userSpaceOnUse">
<stop stop-color="#E6832C"/>
<stop offset="1" stop-color="#E9A347"/>
</linearGradient>
<linearGradient id="paint29_linear_215_897" x1="225.067" y1="354.39" x2="242.068" y2="372.823" gradientUnits="userSpaceOnUse">
<stop stop-color="#E4816F"/>
<stop offset="1" stop-color="#E25E52"/>
</linearGradient>
<linearGradient id="paint30_linear_215_897" x1="611.075" y1="216.655" x2="618.526" y2="224.105" gradientUnits="userSpaceOnUse">
<stop stop-color="#E4816F"/>
<stop offset="1" stop-color="#E25E52"/>
</linearGradient>
<linearGradient id="paint31_linear_215_897" x1="469.47" y1="246.749" x2="473.527" y2="250.805" gradientUnits="userSpaceOnUse">
<stop stop-color="#E4816F"/>
<stop offset="1" stop-color="#E25E52"/>
</linearGradient>
<linearGradient id="paint32_linear_215_897" x1="559.928" y1="188.785" x2="576.925" y2="188.785" gradientUnits="userSpaceOnUse">
<stop stop-color="#8AB9FD"/>
<stop offset="1" stop-color="#0056E9"/>
</linearGradient>
<linearGradient id="paint33_linear_215_897" x1="551.81" y1="162.889" x2="559.539" y2="170.618" gradientUnits="userSpaceOnUse">
<stop stop-color="#8AB9FD"/>
<stop offset="1" stop-color="#0056E9"/>
</linearGradient>
</defs>
</svg>
